<svg xmlns="http://www.w3.org/2000/svg" viewBox="0 0 240 140" fill="none">
  <rect width="240" height="140" rx="8" fill="#0f0f1a"/>
  <!-- Section heading -->
  <rect x="70" y="10" width="100" height="8" rx="3" fill="#ffffff" opacity="0.8"/>
  <rect x="85" y="24" width="70" height="5" rx="2" fill="#ffffff" opacity="0.25"/>
  <!-- Left: form -->
  <rect x="16" y="40" width="96" height="10" rx="3" fill="#ffffff" opacity="0.05" stroke="#ffffff" stroke-opacity="0.1" stroke-width="1"/>
  <rect x="16" y="54" width="96" height="10" rx="3" fill="#ffffff" opacity="0.05" stroke="#ffffff" stroke-opacity="0.1" stroke-width="1"/>
  <rect x="16" y="68" width="96" height="22" rx="3" fill="#ffffff" opacity="0.05" stroke="#ffffff" stroke-opacity="0.1" stroke-width="1"/>
  <rect x="16" y="96" width="96" height="12" rx="4" fill="#a78bfa"/>
  <!-- Right: info card -->
  <rect x="126" y="40" width="100" height="68" rx="6" fill="#a78bfa" opacity="0.06" stroke="#a78bfa" stroke-opacity="0.15" stroke-width="1"/>
  <rect x="136" y="50" width="40" height="5" rx="2" fill="#ffffff" opacity="0.6"/>
  <rect x="136" y="62" width="16" height="3" rx="1" fill="#ffffff" opacity="0.3"/>
  <rect x="136" y="68" width="60" height="4" rx="2" fill="#ffffff" opacity="0.4"/>
  <rect x="136" y="78" width="16" height="3" rx="1" fill="#ffffff" opacity="0.3"/>
  <rect x="136" y="84" width="50" height="4" rx="2" fill="#ffffff" opacity="0.4"/>
  <rect x="136" y="94" width="16" height="3" rx="1" fill="#ffffff" opacity="0.3"/>
</svg>
