<svg xmlns="http://www.w3.org/2000/svg" viewBox="0 0 240 140" fill="none">
  <rect width="240" height="140" rx="8" fill="#0f0f1a"/>
  <!-- Muted background -->
  <rect x="4" y="4" width="232" height="132" rx="6" fill="#a78bfa" opacity="0.03"/>
  <!-- Section heading -->
  <rect x="70" y="12" width="100" height="8" rx="3" fill="#ffffff" opacity="0.8"/>
  <rect x="85" y="26" width="70" height="5" rx="2" fill="#ffffff" opacity="0.25"/>
  <!-- 3-col centered items -->
  <circle cx="46" cy="54" r="10" fill="#a78bfa" opacity="0.12"/>
  <rect x="28" y="70" width="36" height="5" rx="2" fill="#ffffff" opacity="0.6"/>
  <rect x="24" y="80" width="44" height="3" rx="1" fill="#ffffff" opacity="0.2"/>
  <rect x="26" y="86" width="40" height="3" rx="1" fill="#ffffff" opacity="0.2"/>
  <circle cx="120" cy="54" r="10" fill="#a78bfa" opacity="0.12"/>
  <rect x="102" y="70" width="36" height="5" rx="2" fill="#ffffff" opacity="0.6"/>
  <rect x="98" y="80" width="44" height="3" rx="1" fill="#ffffff" opacity="0.2"/>
  <rect x="100" y="86" width="40" height="3" rx="1" fill="#ffffff" opacity="0.2"/>
  <circle cx="194" cy="54" r="10" fill="#a78bfa" opacity="0.12"/>
  <rect x="176" y="70" width="36" height="5" rx="2" fill="#ffffff" opacity="0.6"/>
  <rect x="172" y="80" width="44" height="3" rx="1" fill="#ffffff" opacity="0.2"/>
  <rect x="174" y="86" width="40" height="3" rx="1" fill="#ffffff" opacity="0.2"/>
</svg>
