<svg xmlns="http://www.w3.org/2000/svg" viewBox="0 0 240 140" fill="none">
  <rect width="240" height="140" rx="8" fill="#0f0f1a"/>
  <!-- Section heading -->
  <rect x="70" y="12" width="100" height="8" rx="3" fill="#ffffff" opacity="0.8"/>
  <rect x="85" y="26" width="70" height="5" rx="2" fill="#ffffff" opacity="0.25"/>
  <!-- 3-column card grid -->
  <rect x="14" y="42" width="64" height="48" rx="4" fill="#a78bfa" opacity="0.08" stroke="#a78bfa" stroke-opacity="0.15" stroke-width="1"/>
  <rect x="88" y="42" width="64" height="48" rx="4" fill="#a78bfa" opacity="0.08" stroke="#a78bfa" stroke-opacity="0.15" stroke-width="1"/>
  <rect x="162" y="42" width="64" height="48" rx="4" fill="#a78bfa" opacity="0.08" stroke="#a78bfa" stroke-opacity="0.15" stroke-width="1"/>
  <!-- Card content lines -->
  <rect x="22" y="50" width="20" height="5" rx="2" fill="#a78bfa" opacity="0.4"/>
  <rect x="22" y="60" width="48" height="4" rx="2" fill="#ffffff" opacity="0.5"/>
  <rect x="22" y="68" width="44" height="3" rx="1" fill="#ffffff" opacity="0.2"/>
  <rect x="96" y="50" width="20" height="5" rx="2" fill="#a78bfa" opacity="0.4"/>
  <rect x="96" y="60" width="48" height="4" rx="2" fill="#ffffff" opacity="0.5"/>
  <rect x="96" y="68" width="44" height="3" rx="1" fill="#ffffff" opacity="0.2"/>
  <rect x="170" y="50" width="20" height="5" rx="2" fill="#a78bfa" opacity="0.4"/>
  <rect x="170" y="60" width="48" height="4" rx="2" fill="#ffffff" opacity="0.5"/>
  <rect x="170" y="68" width="44" height="3" rx="1" fill="#ffffff" opacity="0.2"/>
  <!-- Second row -->
  <rect x="14" y="98" width="64" height="28" rx="4" fill="#a78bfa" opacity="0.08" stroke="#a78bfa" stroke-opacity="0.15" stroke-width="1"/>
  <rect x="88" y="98" width="64" height="28" rx="4" fill="#a78bfa" opacity="0.08" stroke="#a78bfa" stroke-opacity="0.15" stroke-width="1"/>
  <rect x="162" y="98" width="64" height="28" rx="4" fill="#a78bfa" opacity="0.08" stroke="#a78bfa" stroke-opacity="0.15" stroke-width="1"/>
</svg>
