<svg xmlns="http://www.w3.org/2000/svg" viewBox="0 0 320 200" role="img"><title>footer multi column layout preview</title><rect x="0" y="0" width="320" height="200" rx="4" fill="#f5f5f4"/><rect x="25" y="20" width="180" height="10" rx="4" fill="#44403c"/><rect x="25" y="38" width="130" height="5" rx="4" fill="#a8a29e"/><rect x="25" y="66" width="82" height="100" rx="4" fill="#d6d3d1"/><rect x="34" y="79" width="63" height="8" rx="4" fill="#78716c"/><rect x="34" y="101" width="58" height="5" rx="4" fill="#a8a29e"/><rect x="34" y="114" width="50" height="5" rx="4" fill="#a8a29e"/><rect x="119" y="66" width="82" height="100" rx="4" fill="#d6d3d1"/><rect x="128" y="79" width="63" height="8" rx="4" fill="#78716c"/><rect x="128" y="101" width="58" height="5" rx="4" fill="#a8a29e"/><rect x="128" y="114" width="50" height="5" rx="4" fill="#a8a29e"/><rect x="213" y="66" width="82" height="100" rx="4" fill="#d6d3d1"/><rect x="222" y="79" width="63" height="8" rx="4" fill="#78716c"/><rect x="222" y="101" width="58" height="5" rx="4" fill="#a8a29e"/><rect x="222" y="114" width="50" height="5" rx="4" fill="#a8a29e"/></svg>
