<svg xmlns="http://www.w3.org/2000/svg" viewBox="0 0 240 140" fill="none">
  <rect width="240" height="140" rx="8" fill="#0f0f1a"/>
  <!-- Card background -->
  <rect x="4" y="4" width="232" height="132" rx="6" fill="#ffffff" opacity="0.04"/>
  <!-- Brand + Newsletter -->
  <rect x="16" y="16" width="40" height="6" rx="2" fill="#ffffff" opacity="0.7"/>
  <rect x="16" y="28" width="60" height="8" rx="3" fill="#ffffff" opacity="0.05" stroke="#ffffff" stroke-opacity="0.1" stroke-width="1"/>
  <rect x="80" y="28" width="28" height="8" rx="3" fill="#a78bfa"/>
  <!-- Link columns -->
  <rect x="130" y="16" width="24" height="4" rx="2" fill="#ffffff" opacity="0.4"/>
  <rect x="130" y="24" width="30" height="3" rx="1" fill="#ffffff" opacity="0.2"/>
  <rect x="130" y="30" width="26" height="3" rx="1" fill="#ffffff" opacity="0.2"/>
  <rect x="130" y="36" width="28" height="3" rx="1" fill="#ffffff" opacity="0.2"/>
  <rect x="176" y="16" width="24" height="4" rx="2" fill="#ffffff" opacity="0.4"/>
  <rect x="176" y="24" width="30" height="3" rx="1" fill="#ffffff" opacity="0.2"/>
  <rect x="176" y="30" width="26" height="3" rx="1" fill="#ffffff" opacity="0.2"/>
  <rect x="176" y="36" width="28" height="3" rx="1" fill="#ffffff" opacity="0.2"/>
  <!-- Divider -->
  <line x1="16" y1="110" x2="224" y2="110" stroke="#ffffff" stroke-opacity="0.1" stroke-width="1"/>
  <!-- Copyright + socials -->
  <rect x="16" y="118" width="80" height="4" rx="2" fill="#ffffff" opacity="0.15"/>
  <circle cx="200" cy="120" r="4" fill="#ffffff" opacity="0.2"/>
  <circle cx="212" cy="120" r="4" fill="#ffffff" opacity="0.2"/>
  <circle cx="224" cy="120" r="4" fill="#ffffff" opacity="0.2"/>
</svg>
