<svg xmlns="http://www.w3.org/2000/svg" viewBox="0 0 240 140" fill="none"><rect width="240" height="140" rx="8" fill="#0f0f1a"/><rect x="60" y="8" width="120" height="6" rx="3" fill="#ffffff" opacity="0.7"/><rect x="24" y="32" width="40" height="28" rx="4" stroke="#ffffff" stroke-opacity="0.15"/><rect x="76" y="32" width="40" height="28" rx="4" stroke="#ffffff" stroke-opacity="0.15"/><rect x="128" y="32" width="40" height="28" rx="4" stroke="#ffffff" stroke-opacity="0.15"/><rect x="180" y="32" width="40" height="28" rx="4" stroke="#ffffff" stroke-opacity="0.15"/><rect x="24" y="72" width="40" height="28" rx="4" stroke="#ffffff" stroke-opacity="0.15"/><rect x="76" y="72" width="40" height="28" rx="4" stroke="#ffffff" stroke-opacity="0.15"/><rect x="128" y="72" width="40" height="28" rx="4" stroke="#ffffff" stroke-opacity="0.15"/><rect x="180" y="72" width="40" height="28" rx="4" stroke="#ffffff" stroke-opacity="0.15"/><rect x="32" y="42" width="24" height="8" rx="2" fill="#a78bfa" opacity="0.3"/><rect x="84" y="42" width="24" height="8" rx="2" fill="#a78bfa" opacity="0.3"/><rect x="136" y="42" width="24" height="8" rx="2" fill="#a78bfa" opacity="0.3"/><rect x="188" y="42" width="24" height="8" rx="2" fill="#a78bfa" opacity="0.3"/></svg>