<svg xmlns="http://www.w3.org/2000/svg" viewBox="0 0 240 140" fill="none"><rect width="240" height="140" rx="8" fill="#0f0f1a"/><rect x="60" y="8" width="120" height="6" rx="3" fill="#ffffff" opacity="0.7"/><rect x="0" y="50" width="240" height="40" rx="0" fill="#a78bfa" opacity="0.04"/><rect x="16" y="62" width="32" height="16" rx="3" fill="#a78bfa" opacity="0.2"/><rect x="56" y="62" width="32" height="16" rx="3" fill="#a78bfa" opacity="0.15"/><rect x="96" y="62" width="32" height="16" rx="3" fill="#a78bfa" opacity="0.2"/><rect x="136" y="62" width="32" height="16" rx="3" fill="#a78bfa" opacity="0.15"/><rect x="176" y="62" width="32" height="16" rx="3" fill="#a78bfa" opacity="0.2"/><rect x="216" y="62" width="32" height="16" rx="3" fill="#a78bfa" opacity="0.1"/><rect x="60" y="102" width="14" height="2" rx="1" fill="#ffffff" opacity="0.15"/><rect x="80" y="102" width="14" height="2" rx="1" fill="#ffffff" opacity="0.25"/><rect x="100" y="102" width="14" height="2" rx="1" fill="#ffffff" opacity="0.15"/><rect x="120" y="102" width="14" height="2" rx="1" fill="#ffffff" opacity="0.15"/><rect x="140" y="102" width="14" height="2" rx="1" fill="#ffffff" opacity="0.15"/><rect x="160" y="102" width="14" height="2" rx="1" fill="#ffffff" opacity="0.25"/></svg>