<svg xmlns="http://www.w3.org/2000/svg" viewBox="0 0 240 140" fill="none">
  <rect width="240" height="140" rx="8" fill="#0f0f1a"/>
  <!-- Muted background -->
  <rect x="4" y="4" width="232" height="132" rx="6" fill="#a78bfa" opacity="0.03"/>
  <!-- Section heading -->
  <rect x="70" y="10" width="100" height="8" rx="3" fill="#ffffff" opacity="0.8"/>
  <rect x="85" y="24" width="70" height="5" rx="2" fill="#ffffff" opacity="0.25"/>
  <!-- List row 1 -->
  <rect x="24" y="40" width="192" height="22" rx="4" fill="#ffffff" opacity="0.04" stroke="#ffffff" stroke-opacity="0.08" stroke-width="1"/>
  <rect x="32" y="46" width="12" height="12" rx="3" fill="#a78bfa" opacity="0.2"/>
  <rect x="50" y="47" width="50" height="4" rx="2" fill="#ffffff" opacity="0.6"/>
  <rect x="50" y="54" width="90" height="3" rx="1" fill="#ffffff" opacity="0.2"/>
  <rect x="180" y="47" width="28" height="10" rx="4" fill="#a78bfa"/>
  <!-- List row 2 -->
  <rect x="24" y="68" width="192" height="22" rx="4" fill="#ffffff" opacity="0.04" stroke="#ffffff" stroke-opacity="0.08" stroke-width="1"/>
  <rect x="32" y="74" width="12" height="12" rx="3" fill="#a78bfa" opacity="0.2"/>
  <rect x="50" y="75" width="50" height="4" rx="2" fill="#ffffff" opacity="0.6"/>
  <rect x="50" y="82" width="90" height="3" rx="1" fill="#ffffff" opacity="0.2"/>
  <rect x="180" y="75" width="28" height="10" rx="4" fill="#a78bfa"/>
  <!-- List row 3 -->
  <rect x="24" y="96" width="192" height="22" rx="4" fill="#ffffff" opacity="0.04" stroke="#ffffff" stroke-opacity="0.08" stroke-width="1"/>
  <rect x="32" y="102" width="12" height="12" rx="3" fill="#a78bfa" opacity="0.2"/>
  <rect x="50" y="103" width="50" height="4" rx="2" fill="#ffffff" opacity="0.6"/>
  <rect x="50" y="110" width="90" height="3" rx="1" fill="#ffffff" opacity="0.2"/>
  <rect x="180" y="103" width="28" height="10" rx="4" fill="#a78bfa"/>
</svg>
