<svg xmlns="http://www.w3.org/2000/svg" viewBox="0 0 240 140" fill="none"><rect width="240" height="140" rx="8" fill="#0f0f1a"/><rect x="60" y="8" width="120" height="6" rx="3" fill="#ffffff" opacity="0.7"/><rect x="18" y="42" width="44" height="56" rx="4" stroke="#ffffff" stroke-opacity="0.15"/><rect x="70" y="42" width="44" height="56" rx="4" stroke="#ffffff" stroke-opacity="0.15"/><rect x="122" y="42" width="44" height="56" rx="4" stroke="#ffffff" stroke-opacity="0.15"/><rect x="174" y="42" width="44" height="56" rx="4" stroke="#ffffff" stroke-opacity="0.15"/><rect x="26" y="54" width="28" height="8" rx="2" fill="#a78bfa" opacity="0.6"/><rect x="78" y="54" width="28" height="8" rx="2" fill="#a78bfa" opacity="0.6"/><rect x="130" y="54" width="28" height="8" rx="2" fill="#a78bfa" opacity="0.6"/><rect x="182" y="54" width="28" height="8" rx="2" fill="#a78bfa" opacity="0.6"/><rect x="28" y="70" width="24" height="3" rx="1" fill="#ffffff" opacity="0.35"/><rect x="80" y="70" width="24" height="3" rx="1" fill="#ffffff" opacity="0.35"/><rect x="132" y="70" width="24" height="3" rx="1" fill="#ffffff" opacity="0.35"/><rect x="184" y="70" width="24" height="3" rx="1" fill="#ffffff" opacity="0.35"/></svg>