<svg xmlns="http://www.w3.org/2000/svg" viewBox="0 0 400 225"><rect width="400" height="225" fill="#0f172a"/><rect x="20" y="80" width="75" height="65" rx="8" fill="#243348"/><rect x="32" y="92" width="33.75" height="16" rx="3" fill="#67e8f9"/><rect x="32" y="122" width="48.75" height="5" rx="2" fill="#94a3b8"/><rect x="115" y="80" width="75" height="65" rx="8" fill="#243348"/><rect x="127" y="92" width="33.75" height="16" rx="3" fill="#67e8f9"/><rect x="127" y="122" width="48.75" height="5" rx="2" fill="#94a3b8"/><rect x="210" y="80" width="75" height="65" rx="8" fill="#243348"/><rect x="222" y="92" width="33.75" height="16" rx="3" fill="#67e8f9"/><rect x="222" y="122" width="48.75" height="5" rx="2" fill="#94a3b8"/><rect x="305" y="80" width="75" height="65" rx="8" fill="#243348"/><rect x="317" y="92" width="33.75" height="16" rx="3" fill="#67e8f9"/><rect x="317" y="122" width="48.75" height="5" rx="2" fill="#94a3b8"/></svg>
