<svg xmlns="http://www.w3.org/2000/svg" viewBox="0 0 240 140" fill="none"><rect width="240" height="140" rx="8" fill="#0f0f1a"/><rect x="60" y="8" width="120" height="6" rx="3" fill="#ffffff" opacity="0.7"/><rect x="30" y="26" width="180" height="24" rx="4" stroke="#ffffff" stroke-opacity="0.15"/><rect x="30" y="56" width="180" height="24" rx="4" stroke="#ffffff" stroke-opacity="0.15"/><rect x="30" y="86" width="180" height="24" rx="4" stroke="#ffffff" stroke-opacity="0.15"/><circle cx="48" cy="38" r="7" fill="#a78bfa" opacity="0.3"/><circle cx="48" cy="68" r="7" fill="#a78bfa" opacity="0.3"/><circle cx="48" cy="98" r="7" fill="#a78bfa" opacity="0.3"/><rect x="62" y="34" width="50" height="3" rx="1" fill="#ffffff" opacity="0.5"/><rect x="62" y="40" width="36" height="3" rx="1" fill="#ffffff" opacity="0.25"/><rect x="62" y="64" width="50" height="3" rx="1" fill="#ffffff" opacity="0.5"/><rect x="62" y="70" width="36" height="3" rx="1" fill="#ffffff" opacity="0.25"/><rect x="62" y="94" width="50" height="3" rx="1" fill="#ffffff" opacity="0.5"/><rect x="62" y="100" width="36" height="3" rx="1" fill="#ffffff" opacity="0.25"/></svg>