<svg xmlns="http://www.w3.org/2000/svg" viewBox="0 0 240 140" fill="none"><rect width="240" height="140" rx="8" fill="#0f0f1a"/><rect x="60" y="8" width="120" height="6" rx="3" fill="#ffffff" opacity="0.7"/><rect x="16" y="24" width="64" height="96" rx="4" stroke="#ffffff" stroke-opacity="0.15"/><rect x="88" y="24" width="64" height="96" rx="4" stroke="#ffffff" stroke-opacity="0.15"/><rect x="160" y="24" width="64" height="96" rx="4" stroke="#ffffff" stroke-opacity="0.15"/><circle cx="48" cy="52" r="14" fill="#a78bfa" opacity="0.2"/><circle cx="120" cy="52" r="14" fill="#a78bfa" opacity="0.2"/><circle cx="192" cy="52" r="14" fill="#a78bfa" opacity="0.2"/><rect x="30" y="74" width="36" height="4" rx="2" fill="#ffffff" opacity="0.5"/><rect x="32" y="82" width="32" height="3" rx="1" fill="#a78bfa" opacity="0.4"/><rect x="102" y="74" width="36" height="4" rx="2" fill="#ffffff" opacity="0.5"/><rect x="104" y="82" width="32" height="3" rx="1" fill="#a78bfa" opacity="0.4"/><rect x="174" y="74" width="36" height="4" rx="2" fill="#ffffff" opacity="0.5"/><rect x="176" y="82" width="32" height="3" rx="1" fill="#a78bfa" opacity="0.4"/></svg>